<svg class="tgme_logo" height="34" viewBox="0 0 34 34" width="34" xmlns="http://www.w3.org/2000/svg">
  <g fill="none" fill-rule="evenodd">
    <circle cx="17" cy="17" fill="#2481cc" r="17"></circle>
    <path d="m7.06510669 16.9258959c5.22739451-2.1065178 8.71314291-3.4952633 10.45724521-4.1662364 4.9797665-1.9157646 6.0145193-2.2485535 6.6889567-2.2595423.1483363-.0024169.480005.0315855.6948461.192827.1814076.1361492.23132.3200675.2552048.4491519.0238847.1290844.0536269.4231419.0299841.65291-.2698553 2.6225356-1.4375148 8.986738-2.0315537 11.9240228-.2513602 1.2428753-.7499132 1.5088847-1.2290685 1.5496672-1.0413153.0886298-1.8284257-.4857912-2.8369905-1.0972863-1.5782048-.9568691-2.5327083-1.3984317-4.0646293-2.3321592-1.7703998-1.0790837-.212559-1.583655.7963867-2.5529189.2640459-.2536609 4.7753906-4.3097041 4.755976-4.431706-.0070494-.0442984-.1409018-.481649-.2457499-.5678447-.104848-.0861957-.2595946-.0567202-.3712641-.033278-.1582881.0332286-2.6794907 1.5745492-7.5636077 4.6239616-.715635.4545193-1.3638349.6759763-1.9445998.6643712-.64024672-.0127938-1.87182452-.334829-2.78737602-.6100966-1.12296117-.3376271-1.53748501-.4966332-1.45976769-1.0700283.04048-.2986597.32581586-.610598.8560076-.935815z" fill="#fff"></path>
  </g>
</svg>